<?xml version="1.0" encoding="UTF-8" standalone="no"?>
<svg width="200" height="200" viewBox="0 0 100 100" version="1.1" xmlns="http://www.w3.org/2000/svg">
    <g fill="currentColor">
        <circle cx="68.5" cy="19.5" r="7.5" />

        <path
            d="M 40.5 32 L 67 32 C 67 32, 60.5 67, 56.5 73.5 C 51.5 81.5, 48 93, 48 93 L 38 93 C 38 93, 40 85, 44 76.5 C 47.5 69, 53 53.5, 53 53.5 L 42 53.5 C 42 53.5, 39.5 50, 40.5 32 Z" />

        <path
            d="M 68 32 L 85 32 L 85 38 L 74.5 38 C 74.5 38, 72.5 53.5, 72.5 53.5 L 63 53.5 L 68 32 Z" />

        <rect x="23" y="53" width="13" height="4" />
        <rect x="23" y="61.5" width="13" height="4" />
    </g>
</svg>